PathFileType	4	(X/Y/Z)	OpenSim_Sub11_EMGPreOp_Magnet.trc
DataRate	CameraRate	NumFrames	NumMarkers	Units	OrigDataRate	OrigDataStartFrame	OrigNumFrames
100	100	23	8	m	100	1	5885
Frame#	Time	torso_imu_offset_imu	pelvis_imu_offset_imu	tibia_r_imu_offset_imu	femur_r_imu_offset_imu	tibia_l_imu_offset_imu	femur_l_imu_offset_imu	toes_r_imu_offset_imu	toes_l_imu_offset_imu
				X1	Y1	Z1	X2	Y2	Z2	X3	Y3	Z3	X4	Y4	Z4	X5	Y5	Z5	X6	Y6	Z6	X7	Y7	Z7	X8		Y8	Z8	

1	0	-0.92319558	-0.20929775	-0.05158260	-0.55405618	0.10001604	-0.60909560	-0.64551646	-0.45854165	-0.27814306	-0.64851994	-0.52012356	-0.02380644	-0.69575946	0.42189648	0.17461990	-0.65227848	0.16489530	0.43984495	-0.55309992	-0.30334367	-0.36368823	-0.72532882	-0.08535294	-0.29800210
2	0.01000000	-0.92129630	-0.20775663	-0.06348416	-0.55970836	0.09734588	-0.61598842	-0.64018912	-0.45962399	-0.27795233	-0.65406784	-0.52374886	-0.02965763	-0.70464464	0.41937605	0.17027704	-0.65862190	0.15921558	0.43370130	-0.55878027	-0.30893181	-0.36920912	-0.73312506	-0.08996506	-0.30384502
3	0.02000000	-0.92915017	-0.21085088	-0.06492231	-0.55836601	0.09853362	-0.61921864	-0.64204174	-0.46151736	-0.28275821	-0.65408327	-0.52100304	-0.03085226	-0.70262148	0.42013598	0.16392716	-0.65646580	0.16131301	0.43062197	-0.55552681	-0.30466893	-0.37424608	-0.72939954	-0.08621877	-0.30484335
4	0.03000000	-0.92200407	-0.21184841	-0.05745988	-0.55637300	0.10199811	-0.61209614	-0.64142569	-0.46058531	-0.28306122	-0.65319929	-0.51943859	-0.02828797	-0.69928991	0.42382952	0.16787785	-0.65562405	0.16388068	0.43539803	-0.55258451	-0.30112155	-0.36942888	-0.72701775	-0.08182197	-0.30322214
5	0.04000000	-0.92274726	-0.20831840	-0.06328239	-0.55288799	0.09927816	-0.62060639	-0.63709602	-0.45858242	-0.28179982	-0.64943436	-0.52137310	-0.03354902	-0.69649330	0.42273533	0.16344422	-0.65322349	0.16041160	0.42832356	-0.54868672	-0.30268873	-0.37446970	-0.72549989	-0.08626508	-0.30996894
6	0.05000000	-0.92090758	-0.20613273	-0.05862141	-0.55342331	0.09863900	-0.62127561	-0.64294844	-0.45980227	-0.28410592	-0.64996960	-0.52078295	-0.03374901	-0.69792916	0.42038567	0.16376871	-0.65237685	0.16223217	0.42928719	-0.55165096	-0.30410068	-0.37607155	-0.72522588	-0.08744355	-0.30887616
7	0.06000000	-0.92446802	-0.21141331	-0.05765585	-0.55315721	0.10075673	-0.61446137	-0.64457923	-0.46070414	-0.28310959	-0.64908642	-0.51922023	-0.02778831	-0.69686264	0.42224814	0.16979339	-0.65366977	0.16444978	0.43468535	-0.55181892	-0.30400821	-0.37093696	-0.72515074	-0.08635399	-0.30270574
8	0.07000000	-0.92300359	-0.21099616	-0.05952124	-0.55618111	0.09724381	-0.61307546	-0.64343924	-0.45906829	-0.28089353	-0.65201029	-0.52431350	-0.03020787	-0.69844957	0.42220971	0.16587854	-0.65649524	0.15865812	0.43285961	-0.55364261	-0.30680845	-0.37115404	-0.73051978	-0.08770998	-0.30354171
9	0.08000000	-0.91988737	-0.20698904	-0.06850280	-0.55556406	0.09795664	-0.61580360	-0.64532827	-0.45756857	-0.27832567	-0.65316188	-0.52285217	-0.03037925	-0.69796838	0.41916062	0.16800564	-0.65512593	0.15813242	0.43333412	-0.55430976	-0.30950415	-0.37211666	-0.72954758	-0.08911266	-0.30390380
10	0.09000000	-0.92571964	-0.20827482	-0.06035939	-0.55386583	0.09672342	-0.61820037	-0.64188585	-0.45589207	-0.27774982	-0.65069832	-0.52163516	-0.03392850	-0.69691403	0.41952416	0.16525526	-0.65180928	0.15989880	0.43047052	-0.55077898	-0.30697303	-0.37337381	-0.72530128	-0.08783343	-0.30590762
11	0.10000000	-0.92202943	-0.20629332	-0.05820768	-0.55290982	0.10067383	-0.62539656	-0.64318462	-0.45795995	-0.27862473	-0.64988639	-0.52014647	-0.04133771	-0.69752152	0.42083250	0.15767928	-0.65420151	0.16319727	0.42319502	-0.55117574	-0.30371157	-0.38279869	-0.72508520	-0.08303112	-0.31412140
12	0.11000000	-0.92141239	-0.20395474	-0.06817376	-0.54343983	0.10442914	-0.61191951	-0.64606196	-0.45613866	-0.27881851	-0.63825991	-0.51747755	-0.02691989	-0.68614489	0.42342620	0.17116555	-0.64248557	0.16405622	0.43463398	-0.54153929	-0.30244381	-0.36812285	-0.71533315	-0.08367514	-0.30144012
13	0.12000000	-0.92404075	-0.20896833	-0.06438858	-0.55035475	0.09745966	-0.61519086	-0.64132618	-0.46128588	-0.28420603	-0.64513514	-0.52123616	-0.02983426	-0.69394038	0.42152075	0.17081382	-0.65116298	0.16136925	0.43565616	-0.54757182	-0.30609823	-0.37351287	-0.72191998	-0.08889090	-0.30183116
14	0.13000000	-0.92492027	-0.20989730	-0.05710689	-0.55144145	0.10100644	-0.61727301	-0.64534885	-0.45904083	-0.27955887	-0.64814715	-0.52043333	-0.03446983	-0.69532430	0.42301191	0.16598216	-0.65089136	0.16315371	0.43174172	-0.54890464	-0.30293203	-0.37541757	-0.72302783	-0.08479888	-0.30633099
15	0.14000000	-0.92263376	-0.21045492	-0.06057054	-0.56221797	0.10058468	-0.61930732	-0.64270398	-0.46185968	-0.27809699	-0.65850535	-0.51871975	-0.03504674	-0.70429830	0.42163999	0.16467183	-0.66167328	0.16307896	0.42902668	-0.55811200	-0.30359224	-0.37522638	-0.73447459	-0.08569046	-0.30910878
16	0.15000000	-0.92394019	-0.20787106	-0.05694603	-0.56393224	0.09363111	-0.61931141	-0.64299177	-0.45974646	-0.28139868	-0.65764782	-0.52067454	-0.03637915	-0.70857476	0.41836750	0.15944380	-0.66332240	0.15725835	0.42785735	-0.56113507	-0.30737539	-0.37825588	-0.73542732	-0.08862987	-0.31184173
17	0.16000000	-0.92528075	-0.20399684	-0.05812207	-0.55110706	0.10247223	-0.61554932	-0.64429608	-0.45751569	-0.27917561	-0.64892963	-0.51738460	-0.03379871	-0.69818673	0.42370917	0.16389807	-0.65208447	0.16401575	0.43064298	-0.55036409	-0.30128437	-0.37283696	-0.72540864	-0.08380669	-0.30810401
18	0.17000000	-0.92209705	-0.20785710	-0.05446363	-0.56017053	0.10914279	-0.61346393	-0.64357361	-0.45782108	-0.28320854	-0.65603278	-0.51046415	-0.03247390	-0.70395157	0.43175202	0.16674452	-0.65981172	0.17179015	0.42958965	-0.55669252	-0.29497472	-0.37176686	-0.73306961	-0.07799401	-0.30502423
19	0.18000000	-0.92109995	-0.20494100	-0.05692354	-0.55746042	0.10245933	-0.60590667	-0.63951301	-0.45576476	-0.28595084	-0.65253752	-0.51838805	-0.02312859	-0.70065779	0.42482468	0.17274467	-0.65579683	0.16269728	0.43986863	-0.55128592	-0.30254888	-0.36634700	-0.72812447	-0.08579414	-0.29742208
20	0.19000000	-0.92010414	-0.20182066	-0.05700019	-0.55502200	0.10314664	-0.61405719	-0.64369975	-0.45821667	-0.28297493	-0.64951705	-0.51472530	-0.03094469	-0.69964983	0.42304227	0.16724569	-0.65390888	0.16745305	0.43535767	-0.55218799	-0.29985066	-0.37280663	-0.72675946	-0.08077360	-0.30530204
21	0.20000000	-0.92077131	-0.20439170	-0.06008028	-0.55360500	0.10564839	-0.61195968	-0.64325605	-0.45517977	-0.28093460	-0.64858468	-0.51440219	-0.02793839	-0.69690762	0.42601948	0.17166167	-0.65173274	0.16875386	0.43654944	-0.55072289	-0.29866481	-0.36652635	-0.72509806	-0.07976152	-0.30200614
22	0.21000000	-0.92397920	-0.21146648	-0.05557983	-0.55477427	0.09373853	-0.61545823	-0.64248028	-0.46033246	-0.27921939	-0.64932271	-0.52479935	-0.02949540	-0.69687900	0.41600646	0.16812747	-0.65540805	0.15550482	0.43288810	-0.55299875	-0.31143878	-0.37060177	-0.72758341	-0.09186076	-0.30292318
23	0.22000000	-0.91813915	-0.20503284	-0.05235845	-0.55447551	0.09766373	-0.61659196	-0.64066061	-0.46050984	-0.27874778	-0.64760533	-0.51991642	-0.03238460	-0.69730306	0.42102506	0.16586121	-0.65276528	0.16053119	0.43151869	-0.54997618	-0.30360675	-0.37260687	-0.72402240	-0.08400672	-0.30586641
